<mxfile host="app.diagrams.net" modified="2020-11-30T10:37:51.595Z" agent="5.0 (Windows NT 6.1; Win64; x64) AppleWebKit/537.36 (KHTML, like Gecko) Chrome/86.0.4240.198 Safari/537.36" etag="OwAxRGBNj7MvZMTOIcS_" version="13.10.4" type="github">
  <diagram id="U5beLIiQJ9dUrQ34KQQU" name="Page-1">
    <mxGraphModel dx="1240" dy="689" grid="1" gridSize="10" guides="1" tooltips="1" connect="1" arrows="1" fold="1" page="1" pageScale="1" pageWidth="1169" pageHeight="827" math="0" shadow="0">
      <root>
        <mxCell id="0" />
        <mxCell id="1" parent="0" />
        <mxCell id="35rY1FEg8uixYlM4IC-K-24" value="" style="rounded=0;whiteSpace=wrap;html=1;" vertex="1" parent="1">
          <mxGeometry x="60" y="120" width="160" height="360" as="geometry" />
        </mxCell>
        <mxCell id="35rY1FEg8uixYlM4IC-K-79" style="edgeStyle=orthogonalEdgeStyle;rounded=0;orthogonalLoop=1;jettySize=auto;html=1;exitX=0.5;exitY=1;exitDx=0;exitDy=0;" edge="1" parent="1" source="35rY1FEg8uixYlM4IC-K-25" target="35rY1FEg8uixYlM4IC-K-47">
          <mxGeometry relative="1" as="geometry" />
        </mxCell>
        <mxCell id="35rY1FEg8uixYlM4IC-K-25" value="" style="rounded=0;whiteSpace=wrap;html=1;" vertex="1" parent="1">
          <mxGeometry x="460" y="117" width="220" height="490" as="geometry" />
        </mxCell>
        <mxCell id="35rY1FEg8uixYlM4IC-K-72" style="edgeStyle=orthogonalEdgeStyle;rounded=0;orthogonalLoop=1;jettySize=auto;html=1;exitX=1;exitY=0.5;exitDx=0;exitDy=0;entryX=0;entryY=0.5;entryDx=0;entryDy=0;entryPerimeter=0;" edge="1" parent="1" source="35rY1FEg8uixYlM4IC-K-26" target="35rY1FEg8uixYlM4IC-K-64">
          <mxGeometry relative="1" as="geometry" />
        </mxCell>
        <mxCell id="35rY1FEg8uixYlM4IC-K-26" value="&lt;font style=&quot;font-size: 18px&quot;&gt;&lt;b&gt;计算时段&lt;/b&gt;&lt;/font&gt;" style="rounded=1;whiteSpace=wrap;html=1;" vertex="1" parent="1">
          <mxGeometry x="80" y="174.5" width="120" height="35" as="geometry" />
        </mxCell>
        <mxCell id="35rY1FEg8uixYlM4IC-K-32" value="&lt;b&gt;&lt;font style=&quot;font-size: 18px&quot;&gt;实时交通信息&lt;/font&gt;&lt;/b&gt;" style="text;html=1;strokeColor=none;fillColor=none;align=center;verticalAlign=middle;whiteSpace=wrap;rounded=0;" vertex="1" parent="1">
          <mxGeometry x="80" y="125" width="125" height="30" as="geometry" />
        </mxCell>
        <mxCell id="35rY1FEg8uixYlM4IC-K-33" value="&lt;b style=&quot;font-size: 18px&quot;&gt;计算对应时段&lt;br&gt;和路段的车型流量&lt;/b&gt;" style="rounded=1;whiteSpace=wrap;html=1;" vertex="1" parent="1">
          <mxGeometry x="485" y="357.5" width="170" height="60" as="geometry" />
        </mxCell>
        <mxCell id="35rY1FEg8uixYlM4IC-K-35" value="&lt;b style=&quot;font-size: 18px&quot;&gt;提取对应时段&lt;br&gt;的环境参数&lt;/b&gt;" style="rounded=1;whiteSpace=wrap;html=1;" vertex="1" parent="1">
          <mxGeometry x="485" y="162" width="170" height="60" as="geometry" />
        </mxCell>
        <mxCell id="35rY1FEg8uixYlM4IC-K-36" value="&lt;b style=&quot;font-size: 18px&quot;&gt;提取对应时段&lt;br&gt;和路段的车流分布&lt;/b&gt;" style="rounded=1;whiteSpace=wrap;html=1;" vertex="1" parent="1">
          <mxGeometry x="480" y="258.5" width="170" height="60" as="geometry" />
        </mxCell>
        <mxCell id="35rY1FEg8uixYlM4IC-K-37" value="&lt;b style=&quot;font-size: 18px&quot;&gt;提取相应车速段&lt;br&gt;的VSP分布数据&lt;/b&gt;" style="rounded=1;whiteSpace=wrap;html=1;" vertex="1" parent="1">
          <mxGeometry x="485" y="440" width="170" height="60" as="geometry" />
        </mxCell>
        <mxCell id="35rY1FEg8uixYlM4IC-K-38" value="&lt;b style=&quot;font-size: 18px&quot;&gt;提取各车型的&lt;br&gt;基础排放因子&lt;br&gt;&lt;/b&gt;" style="rounded=1;whiteSpace=wrap;html=1;" vertex="1" parent="1">
          <mxGeometry x="485" y="520" width="170" height="60" as="geometry" />
        </mxCell>
        <mxCell id="35rY1FEg8uixYlM4IC-K-39" value="&lt;b&gt;&lt;font style=&quot;font-size: 18px&quot;&gt;排放基础数据&lt;/font&gt;&lt;/b&gt;" style="text;html=1;strokeColor=none;fillColor=none;align=center;verticalAlign=middle;whiteSpace=wrap;rounded=0;" vertex="1" parent="1">
          <mxGeometry x="500" y="125" width="140" height="30" as="geometry" />
        </mxCell>
        <mxCell id="35rY1FEg8uixYlM4IC-K-40" value="&lt;b style=&quot;font-size: 18px&quot;&gt;路段编号&lt;/b&gt;" style="rounded=1;whiteSpace=wrap;html=1;" vertex="1" parent="1">
          <mxGeometry x="80" y="221.5" width="120" height="35" as="geometry" />
        </mxCell>
        <mxCell id="35rY1FEg8uixYlM4IC-K-69" style="edgeStyle=orthogonalEdgeStyle;rounded=0;orthogonalLoop=1;jettySize=auto;html=1;exitX=1;exitY=0.5;exitDx=0;exitDy=0;entryX=0.5;entryY=1;entryDx=0;entryDy=0;entryPerimeter=0;" edge="1" parent="1" source="35rY1FEg8uixYlM4IC-K-41" target="35rY1FEg8uixYlM4IC-K-67">
          <mxGeometry relative="1" as="geometry" />
        </mxCell>
        <mxCell id="35rY1FEg8uixYlM4IC-K-41" value="&lt;b style=&quot;font-size: 18px&quot;&gt;路段类型&lt;/b&gt;" style="rounded=1;whiteSpace=wrap;html=1;" vertex="1" parent="1">
          <mxGeometry x="80.5" y="271.5" width="120" height="35" as="geometry" />
        </mxCell>
        <mxCell id="35rY1FEg8uixYlM4IC-K-42" value="&lt;b style=&quot;font-size: 18px&quot;&gt;路段长度&lt;/b&gt;" style="rounded=1;whiteSpace=wrap;html=1;" vertex="1" parent="1">
          <mxGeometry x="80" y="320" width="120" height="35" as="geometry" />
        </mxCell>
        <mxCell id="35rY1FEg8uixYlM4IC-K-71" style="edgeStyle=orthogonalEdgeStyle;rounded=0;orthogonalLoop=1;jettySize=auto;html=1;exitX=1;exitY=0.5;exitDx=0;exitDy=0;" edge="1" parent="1" source="35rY1FEg8uixYlM4IC-K-43" target="35rY1FEg8uixYlM4IC-K-33">
          <mxGeometry relative="1" as="geometry" />
        </mxCell>
        <mxCell id="35rY1FEg8uixYlM4IC-K-43" value="&lt;b style=&quot;font-size: 18px&quot;&gt;车流总量&lt;/b&gt;" style="rounded=1;whiteSpace=wrap;html=1;" vertex="1" parent="1">
          <mxGeometry x="80" y="370" width="120" height="35" as="geometry" />
        </mxCell>
        <mxCell id="35rY1FEg8uixYlM4IC-K-74" style="edgeStyle=orthogonalEdgeStyle;rounded=0;orthogonalLoop=1;jettySize=auto;html=1;exitX=1;exitY=0.5;exitDx=0;exitDy=0;entryX=0.5;entryY=1;entryDx=0;entryDy=0;entryPerimeter=0;" edge="1" parent="1" source="35rY1FEg8uixYlM4IC-K-44" target="35rY1FEg8uixYlM4IC-K-73">
          <mxGeometry relative="1" as="geometry" />
        </mxCell>
        <mxCell id="35rY1FEg8uixYlM4IC-K-44" value="&lt;b style=&quot;font-size: 18px&quot;&gt;平均车速&lt;/b&gt;" style="rounded=1;whiteSpace=wrap;html=1;" vertex="1" parent="1">
          <mxGeometry x="80" y="421" width="120" height="35" as="geometry" />
        </mxCell>
        <mxCell id="35rY1FEg8uixYlM4IC-K-47" value="&lt;font style=&quot;font-size: 24px&quot;&gt;&lt;b&gt;IVE模型&lt;/b&gt;&lt;/font&gt;" style="shape=process;whiteSpace=wrap;html=1;backgroundOutline=1;" vertex="1" parent="1">
          <mxGeometry x="460" y="680" width="220" height="60" as="geometry" />
        </mxCell>
        <mxCell id="35rY1FEg8uixYlM4IC-K-56" style="edgeStyle=orthogonalEdgeStyle;rounded=0;orthogonalLoop=1;jettySize=auto;html=1;exitX=0;exitY=0.5;exitDx=0;exitDy=0;exitPerimeter=0;" edge="1" parent="1" source="35rY1FEg8uixYlM4IC-K-51" target="35rY1FEg8uixYlM4IC-K-35">
          <mxGeometry relative="1" as="geometry" />
        </mxCell>
        <mxCell id="35rY1FEg8uixYlM4IC-K-51" value="&lt;font style=&quot;font-size: 18px&quot;&gt;&lt;b&gt;&lt;br&gt;环境参数&lt;br&gt;数据库&lt;/b&gt;&lt;/font&gt;" style="strokeWidth=2;html=1;shape=mxgraph.flowchart.database;whiteSpace=wrap;" vertex="1" parent="1">
          <mxGeometry x="800" y="154.5" width="110" height="75" as="geometry" />
        </mxCell>
        <mxCell id="35rY1FEg8uixYlM4IC-K-57" style="edgeStyle=orthogonalEdgeStyle;rounded=0;orthogonalLoop=1;jettySize=auto;html=1;exitX=0;exitY=0.5;exitDx=0;exitDy=0;exitPerimeter=0;" edge="1" parent="1" source="35rY1FEg8uixYlM4IC-K-52" target="35rY1FEg8uixYlM4IC-K-36">
          <mxGeometry relative="1" as="geometry" />
        </mxCell>
        <mxCell id="35rY1FEg8uixYlM4IC-K-52" value="&lt;font style=&quot;font-size: 18px&quot;&gt;&lt;b&gt;&lt;br&gt;车流分布&lt;br&gt;数据库&lt;/b&gt;&lt;/font&gt;" style="strokeWidth=2;html=1;shape=mxgraph.flowchart.database;whiteSpace=wrap;" vertex="1" parent="1">
          <mxGeometry x="800" y="250.5" width="110" height="75" as="geometry" />
        </mxCell>
        <mxCell id="35rY1FEg8uixYlM4IC-K-58" style="edgeStyle=orthogonalEdgeStyle;rounded=0;orthogonalLoop=1;jettySize=auto;html=1;exitX=0;exitY=0.5;exitDx=0;exitDy=0;exitPerimeter=0;entryX=1;entryY=0.5;entryDx=0;entryDy=0;" edge="1" parent="1" source="35rY1FEg8uixYlM4IC-K-53" target="35rY1FEg8uixYlM4IC-K-37">
          <mxGeometry relative="1" as="geometry" />
        </mxCell>
        <mxCell id="35rY1FEg8uixYlM4IC-K-53" value="&lt;font style=&quot;font-size: 18px&quot;&gt;&lt;b&gt;&lt;br&gt;VSP分布&lt;br&gt;数据库&lt;/b&gt;&lt;/font&gt;" style="strokeWidth=2;html=1;shape=mxgraph.flowchart.database;whiteSpace=wrap;" vertex="1" parent="1">
          <mxGeometry x="800" y="350" width="110" height="75" as="geometry" />
        </mxCell>
        <mxCell id="35rY1FEg8uixYlM4IC-K-61" style="edgeStyle=orthogonalEdgeStyle;rounded=0;orthogonalLoop=1;jettySize=auto;html=1;exitX=0;exitY=0.5;exitDx=0;exitDy=0;exitPerimeter=0;entryX=1;entryY=0.5;entryDx=0;entryDy=0;" edge="1" parent="1" source="35rY1FEg8uixYlM4IC-K-54" target="35rY1FEg8uixYlM4IC-K-38">
          <mxGeometry relative="1" as="geometry" />
        </mxCell>
        <mxCell id="35rY1FEg8uixYlM4IC-K-54" value="&lt;font style=&quot;font-size: 18px&quot;&gt;&lt;b&gt;&lt;br&gt;车辆技术&lt;br&gt;数据库&lt;/b&gt;&lt;/font&gt;" style="strokeWidth=2;html=1;shape=mxgraph.flowchart.database;whiteSpace=wrap;" vertex="1" parent="1">
          <mxGeometry x="800" y="455" width="110" height="75" as="geometry" />
        </mxCell>
        <mxCell id="35rY1FEg8uixYlM4IC-K-60" style="edgeStyle=orthogonalEdgeStyle;rounded=0;orthogonalLoop=1;jettySize=auto;html=1;exitX=0;exitY=0.5;exitDx=0;exitDy=0;exitPerimeter=0;" edge="1" parent="1" source="35rY1FEg8uixYlM4IC-K-55" target="35rY1FEg8uixYlM4IC-K-38">
          <mxGeometry relative="1" as="geometry" />
        </mxCell>
        <mxCell id="35rY1FEg8uixYlM4IC-K-55" value="&lt;font style=&quot;font-size: 18px&quot;&gt;&lt;b&gt;&lt;br&gt;基础排放因子数据库&lt;/b&gt;&lt;/font&gt;" style="strokeWidth=2;html=1;shape=mxgraph.flowchart.database;whiteSpace=wrap;" vertex="1" parent="1">
          <mxGeometry x="800" y="555" width="110" height="75" as="geometry" />
        </mxCell>
        <mxCell id="35rY1FEg8uixYlM4IC-K-66" style="edgeStyle=orthogonalEdgeStyle;rounded=0;orthogonalLoop=1;jettySize=auto;html=1;exitX=1;exitY=0.5;exitDx=0;exitDy=0;exitPerimeter=0;" edge="1" parent="1" source="35rY1FEg8uixYlM4IC-K-64" target="35rY1FEg8uixYlM4IC-K-35">
          <mxGeometry relative="1" as="geometry" />
        </mxCell>
        <mxCell id="35rY1FEg8uixYlM4IC-K-64" value="&lt;b style=&quot;font-size: 18px&quot;&gt;判断日期&lt;br&gt;和时间&lt;/b&gt;" style="strokeWidth=1;html=1;shape=mxgraph.flowchart.decision;whiteSpace=wrap;" vertex="1" parent="1">
          <mxGeometry x="270" y="154" width="135" height="76" as="geometry" />
        </mxCell>
        <mxCell id="35rY1FEg8uixYlM4IC-K-70" value="" style="edgeStyle=orthogonalEdgeStyle;rounded=0;orthogonalLoop=1;jettySize=auto;html=1;" edge="1" parent="1" source="35rY1FEg8uixYlM4IC-K-67" target="35rY1FEg8uixYlM4IC-K-36">
          <mxGeometry relative="1" as="geometry" />
        </mxCell>
        <mxCell id="35rY1FEg8uixYlM4IC-K-78" style="edgeStyle=orthogonalEdgeStyle;rounded=0;orthogonalLoop=1;jettySize=auto;html=1;exitX=0.5;exitY=0;exitDx=0;exitDy=0;exitPerimeter=0;" edge="1" parent="1" source="35rY1FEg8uixYlM4IC-K-67">
          <mxGeometry relative="1" as="geometry">
            <mxPoint x="430" y="440" as="targetPoint" />
            <Array as="points">
              <mxPoint x="430" y="289" />
            </Array>
          </mxGeometry>
        </mxCell>
        <mxCell id="35rY1FEg8uixYlM4IC-K-67" value="&lt;b style=&quot;font-size: 18px&quot;&gt;判断道路&lt;br&gt;类型&lt;/b&gt;" style="strokeWidth=1;html=1;shape=mxgraph.flowchart.decision;whiteSpace=wrap;direction=south;" vertex="1" parent="1">
          <mxGeometry x="270" y="252.25" width="135" height="72.5" as="geometry" />
        </mxCell>
        <mxCell id="35rY1FEg8uixYlM4IC-K-75" style="edgeStyle=orthogonalEdgeStyle;rounded=0;orthogonalLoop=1;jettySize=auto;html=1;exitX=0.5;exitY=0;exitDx=0;exitDy=0;exitPerimeter=0;entryX=0;entryY=0.5;entryDx=0;entryDy=0;" edge="1" parent="1" source="35rY1FEg8uixYlM4IC-K-73" target="35rY1FEg8uixYlM4IC-K-37">
          <mxGeometry relative="1" as="geometry" />
        </mxCell>
        <mxCell id="35rY1FEg8uixYlM4IC-K-73" value="&lt;b style=&quot;font-size: 18px&quot;&gt;判断对应&lt;br&gt;车速段&lt;/b&gt;" style="strokeWidth=1;html=1;shape=mxgraph.flowchart.decision;whiteSpace=wrap;direction=south;" vertex="1" parent="1">
          <mxGeometry x="270" y="402.25" width="135" height="72.5" as="geometry" />
        </mxCell>
        <mxCell id="35rY1FEg8uixYlM4IC-K-82" style="edgeStyle=orthogonalEdgeStyle;rounded=0;orthogonalLoop=1;jettySize=auto;html=1;exitX=0;exitY=0.5;exitDx=0;exitDy=0;entryX=1;entryY=0.5;entryDx=0;entryDy=0;entryPerimeter=0;" edge="1" parent="1" source="35rY1FEg8uixYlM4IC-K-80" target="35rY1FEg8uixYlM4IC-K-51">
          <mxGeometry relative="1" as="geometry" />
        </mxCell>
        <mxCell id="35rY1FEg8uixYlM4IC-K-80" value="&lt;font style=&quot;font-size: 18px&quot;&gt;&lt;b&gt;油品、温湿度等相关参数&lt;/b&gt;&lt;/font&gt;" style="rounded=0;whiteSpace=wrap;html=1;strokeWidth=1;" vertex="1" parent="1">
          <mxGeometry x="1010" y="162" width="120" height="60" as="geometry" />
        </mxCell>
        <mxCell id="35rY1FEg8uixYlM4IC-K-84" style="edgeStyle=orthogonalEdgeStyle;rounded=0;orthogonalLoop=1;jettySize=auto;html=1;exitX=0;exitY=0.5;exitDx=0;exitDy=0;entryX=1;entryY=0.5;entryDx=0;entryDy=0;entryPerimeter=0;" edge="1" parent="1" source="35rY1FEg8uixYlM4IC-K-81" target="35rY1FEg8uixYlM4IC-K-52">
          <mxGeometry relative="1" as="geometry" />
        </mxCell>
        <mxCell id="35rY1FEg8uixYlM4IC-K-81" value="&lt;font style=&quot;font-size: 18px&quot;&gt;&lt;b&gt;典型路段和&lt;br&gt;时段车流量&lt;/b&gt;&lt;/font&gt;" style="rounded=0;whiteSpace=wrap;html=1;strokeWidth=1;" vertex="1" parent="1">
          <mxGeometry x="1010" y="257.75" width="120" height="60" as="geometry" />
        </mxCell>
        <mxCell id="35rY1FEg8uixYlM4IC-K-87" style="edgeStyle=orthogonalEdgeStyle;rounded=0;orthogonalLoop=1;jettySize=auto;html=1;exitX=0;exitY=0.5;exitDx=0;exitDy=0;entryX=1;entryY=0.5;entryDx=0;entryDy=0;entryPerimeter=0;" edge="1" parent="1" source="35rY1FEg8uixYlM4IC-K-85" target="35rY1FEg8uixYlM4IC-K-53">
          <mxGeometry relative="1" as="geometry" />
        </mxCell>
        <mxCell id="35rY1FEg8uixYlM4IC-K-85" value="&lt;span style=&quot;font-size: 18px&quot;&gt;&lt;b&gt;主要车种的&lt;br&gt;工况数据&lt;/b&gt;&lt;/span&gt;" style="rounded=0;whiteSpace=wrap;html=1;strokeWidth=1;" vertex="1" parent="1">
          <mxGeometry x="1010" y="357.5" width="120" height="60" as="geometry" />
        </mxCell>
        <mxCell id="35rY1FEg8uixYlM4IC-K-88" style="edgeStyle=orthogonalEdgeStyle;rounded=0;orthogonalLoop=1;jettySize=auto;html=1;exitX=0;exitY=0.5;exitDx=0;exitDy=0;" edge="1" parent="1" source="35rY1FEg8uixYlM4IC-K-86" target="35rY1FEg8uixYlM4IC-K-54">
          <mxGeometry relative="1" as="geometry" />
        </mxCell>
        <mxCell id="35rY1FEg8uixYlM4IC-K-86" value="&lt;span style=&quot;font-size: 18px&quot;&gt;&lt;b&gt;车辆技术分布调查数据&lt;/b&gt;&lt;/span&gt;" style="rounded=0;whiteSpace=wrap;html=1;strokeWidth=1;" vertex="1" parent="1">
          <mxGeometry x="1010" y="462" width="120" height="60" as="geometry" />
        </mxCell>
      </root>
    </mxGraphModel>
  </diagram>
</mxfile>
